<?xml version="1.0" encoding="iso-8859-1"?>
<!-- Uploaded to: SVG Repo, www.svgrepo.com, Generator: SVG Repo Mixer Tools -->
<svg height="800px" width="800px" version="1.1" id="Layer_1" xmlns="http://www.w3.org/2000/svg" xmlns:xlink="http://www.w3.org/1999/xlink" 
	 viewBox="0 0 501.694 501.694" xml:space="preserve">
<path style="fill:#FFD15C;" d="M7.165,133.035c138.971-121.208,346.906-121.208,486.922,0c8.359,7.314,10.449,20.898,3.135,30.302
	l-36.571,45.976l-10.449,12.539L267.345,451.729c-8.359,10.449-25.078,10.449-33.437,0L51.051,220.806l-10.449-12.539L4.03,162.292
	C-2.239,153.933-1.194,140.349,7.165,133.035z"/>
<path style="fill:#F8B64C;" d="M7.165,133.035c138.971-121.208,346.906-121.208,486.922,0c8.359,7.314,10.449,20.898,3.135,30.302
	l-36.571,45.976l-10.449,12.539h-1.045c-55.38-48.065-126.433-74.188-199.576-74.188S106.43,173.786,50.006,221.851h-1.045
	l-10.449-12.539L4.03,162.292C-2.239,153.933-1.194,140.349,7.165,133.035z"/>
<path style="fill:#FF7058;" d="M7.165,133.035c138.971-121.208,346.906-121.208,486.922,0c8.359,7.314,10.449,20.898,3.135,30.302
	l-36.571,45.976c-121.208-104.49-298.841-104.49-420.049,0L4.03,162.292C-2.239,153.933-1.194,140.349,7.165,133.035z"/>
<g>
	<circle style="fill:#F8B64C;" cx="365.565" cy="229.165" r="29.257"/>
	<circle style="fill:#F8B64C;" cx="113.745" cy="250.063" r="12.539"/>
</g>
<circle style="fill:#FF7058;" cx="205.696" cy="213.492" r="42.841"/>
<g>
	<circle style="fill:#F1543F;" cx="205.696" cy="242.749" r="8.359"/>
	<circle style="fill:#F1543F;" cx="205.696" cy="184.235" r="8.359"/>
	<ellipse style="fill:#F1543F;" cx="185.464" cy="233.219" rx="8.359" ry="8.359"/>
	<ellipse style="fill:#F1543F;" cx="226.79" cy="192.704" rx="8.359" ry="8.359"/>
	<circle style="fill:#F1543F;" cx="176.438" cy="213.492" r="8.359"/>
	<circle style="fill:#F1543F;" cx="234.953" cy="213.492" r="8.359"/>
	<ellipse style="fill:#F1543F;" cx="185.886" cy="192.294" rx="8.359" ry="8.359"/>
	<ellipse style="fill:#F1543F;" cx="226.39" cy="233.63" rx="8.359" ry="8.359"/>
</g>
<circle style="fill:#F8B64C;" cx="246.447" cy="402.618" r="16.718"/>
<path style="fill:#FF7058;" d="M289.287,293.949c-11.494,0-20.898,9.404-20.898,20.898c0,11.494,9.404,20.898,20.898,20.898
	c11.494,0,20.898-9.404,20.898-20.898C310.185,303.353,300.781,293.949,289.287,293.949z M289.287,328.431
	c-7.314,0-12.539-6.269-12.539-12.539c0-7.314,6.269-12.539,12.539-12.539c7.314,0,12.539,6.269,12.539,12.539
	C301.826,322.161,296.602,328.431,289.287,328.431z"/>
<path style="fill:#F8B64C;" d="M221.369,313.802c0,4.18-4.18,7.314-7.314,6.269c-13.584-1.045-25.078,9.404-26.122,22.988
	c0,4.18-4.18,7.314-7.314,6.269c-4.18,0-7.314-4.18-6.269-7.314c1.045-21.943,19.853-37.616,41.796-36.571
	C219.279,306.488,222.414,309.622,221.369,313.802z"/>
</svg>